<?xml version="1.0" encoding="UTF-8" standalone="no"?>
<!-- Created with Inkscape (http://www.inkscape.org/) -->

<svg
   xmlns:dc="http://purl.org/dc/elements/1.1/"
   xmlns:cc="http://creativecommons.org/ns#"
   xmlns:rdf="http://www.w3.org/1999/02/22-rdf-syntax-ns#"
   xmlns:svg="http://www.w3.org/2000/svg"
   xmlns="http://www.w3.org/2000/svg"
   xmlns:sodipodi="http://sodipodi.sourceforge.net/DTD/sodipodi-0.dtd"
   xmlns:inkscape="http://www.inkscape.org/namespaces/inkscape"
   width="328.8927"
   height="43.098206"
   viewBox="0 0 87.01953 11.403067"
   version="1.1"
   id="svg8"
   inkscape:version="0.92.3 (2405546, 2018-03-11)"
   sodipodi:docname="brand.svg">
  <defs
     id="defs2" />
  <sodipodi:namedview
     id="base"
     pagecolor="#000000"
     bordercolor="#666666"
     borderopacity="1.0"
     inkscape:pageopacity="0"
     inkscape:pageshadow="2"
     inkscape:zoom="1.979899"
     inkscape:cx="144.16366"
     inkscape:cy="-62.317305"
     inkscape:document-units="mm"
     inkscape:current-layer="text949"
     showgrid="false"
     fit-margin-top="4"
     fit-margin-left="4"
     fit-margin-right="4"
     fit-margin-bottom="4"
     inkscape:window-width="1912"
     inkscape:window-height="1052"
     inkscape:window-x="4"
     inkscape:window-y="4"
     inkscape:window-maximized="1"
     units="px" />
  <metadata
     id="metadata5">
    <rdf:RDF>
      <cc:Work
         rdf:about="">
        <dc:format>image/svg+xml</dc:format>
        <dc:type
           rdf:resource="http://purl.org/dc/dcmitype/StillImage" />
        <dc:title></dc:title>
      </cc:Work>
    </rdf:RDF>
  </metadata>
  <g
     inkscape:label="Layer 1"
     inkscape:groupmode="layer"
     id="layer1"
     transform="translate(-131.7593,-54.971017)">
    <path
       style="fill:#ffffff;stroke:#ffffff;stroke-width:0.22051257;stroke-miterlimit:4;stroke-dasharray:none;stroke-opacity:1"
       d="m 141.04586,56.139628 c -0.0674,-3.69e-4 -0.13377,0.02631 -0.32648,0.119141 l -0.16875,0.0813 -0.0187,0.151856 c -0.0384,0.311538 -0.13104,0.956015 -0.14688,1.021625 -0.027,0.112026 -0.18362,0.275955 -0.64674,0.677047 -0.0428,0.0371 -0.0831,0.07167 -0.12363,0.106257 0.008,0.08532 0.0128,0.178365 0.0128,0.279418 v 1.048791 c 0,0.04011 8.3e-4,0.07818 0.002,0.114678 0.30719,-0.236481 0.5889,-0.451064 0.81081,-0.616972 l 0.3328,-0.248799 0.13771,0.03361 c 0.20018,0.04886 0.34846,0.10491 0.47987,0.181389 l 0.11581,0.06741 0.0491,-0.04987 c 0.0662,-0.06718 0.19262,-0.286374 0.2609,-0.452386 0.11357,-0.27617 0.13919,-0.493782 0.0759,-0.645031 -0.0581,-0.13891 -0.23971,-0.342616 -0.43908,-0.492553 -0.0424,-0.03193 -0.0773,-0.06747 -0.0775,-0.07897 -2e-4,-0.01152 0.0174,-0.111784 0.039,-0.222837 l 0.0393,-0.20188 -0.0533,-0.332974 c -0.0486,-0.303272 -0.0571,-0.339272 -0.0958,-0.404226 -0.0501,-0.08419 -0.10113,-0.116091 -0.211,-0.131948 -0.0172,-0.0025 -0.0329,-0.004 -0.0484,-0.0041 z m -6.92195,0.184338 c -0.15884,0.0027 -0.33576,0.0525 -0.44254,0.140563 -0.10548,0.08701 -0.10773,0.09348 -0.11146,0.318383 -0.002,0.109283 0.001,0.34176 0.006,0.516614 l 0.01,0.317916 -0.15308,0.09624 c -0.0842,0.05293 -0.22295,0.153968 -0.30832,0.224506 l -0.15519,0.128261 -0.0248,0.283532 c -0.0337,0.385493 -0.0216,0.474554 0.0928,0.684498 0.0728,0.133565 0.16186,0.239759 0.29133,0.347333 0.0959,0.07966 0.10336,0.08258 0.2032,0.07928 0.0618,-0.002 0.15924,-0.02436 0.24135,-0.05534 0.50017,-0.188584 0.59462,-0.208999 0.79183,-0.171028 0.20634,0.03974 0.27098,0.07531 0.49345,0.271541 0.045,0.03969 0.12683,0.114172 0.22356,0.202889 7.6e-4,-0.02715 0.001,-0.05505 0.001,-0.0841 v -1.048791 c 0,-0.09017 0.003,-0.173872 0.0101,-0.251515 -0.14592,-0.134132 -0.27386,-0.252287 -0.3371,-0.31229 -0.18557,-0.176046 -0.24787,-0.312926 -0.28831,-0.633465 -0.0295,-0.233371 -0.0914,-0.529609 -0.15745,-0.752568 -0.0528,-0.178132 -0.0627,-0.199747 -0.10808,-0.234479 -0.0571,-0.04374 -0.14716,-0.0656 -0.24702,-0.06791 -0.0104,-2.32e-4 -0.0209,-2.66e-4 -0.0315,-6.6e-5 z m 5.50358,5.584727 v 0.859484 c 0,0.147084 -0.0102,0.279262 -0.0306,0.396503 -0.01,0.05824 -0.0222,0.11183 -0.0368,0.160937 0.23392,0.211819 0.41571,0.389946 0.57067,0.556781 0.20468,0.220396 0.196,0.200372 0.20544,0.474158 0.009,0.267387 0.0236,0.414391 0.0461,0.474119 0.009,0.02341 0.0841,0.112577 0.16714,0.198077 0.12951,0.133345 0.1611,0.157454 0.22189,0.169475 0.12757,0.02519 0.36491,-0.02434 0.48297,-0.100823 0.11458,-0.07423 0.13303,-0.137183 0.17391,-0.593532 0.0102,-0.113914 0.0231,-0.227925 0.0287,-0.25334 0.0139,-0.06324 0.0617,-0.11007 0.22301,-0.218101 0.15584,-0.104416 0.2119,-0.162425 0.26289,-0.272046 0.0336,-0.07235 0.0357,-0.08676 0.0393,-0.278759 0.006,-0.314201 -0.0416,-0.559442 -0.16801,-0.86647 -0.0553,-0.134339 -0.20853,-0.410348 -0.27763,-0.500159 -0.0384,-0.04987 -0.0436,-0.05139 -0.11833,-0.03357 -0.11429,0.02726 -0.26182,0.105463 -0.39234,0.208012 -0.33266,0.261346 -0.35378,0.275219 -0.41887,0.274994 -0.0698,-2.32e-4 -0.16566,-0.06249 -0.76314,-0.495774 -0.0561,-0.04067 -0.13279,-0.09758 -0.21635,-0.159967 z m -4.34424,0.01265 c -0.13263,0.114539 -0.23794,0.199189 -0.33907,0.273714 -0.37097,0.273369 -0.57073,0.370612 -0.72954,0.355172 -0.0996,-0.0097 -0.15519,-0.03824 -0.47589,-0.244569 -0.092,-0.05919 -0.13186,-0.07432 -0.20096,-0.07614 -0.0824,-0.0022 -0.09,0.0016 -0.17213,0.08565 -0.15769,0.161283 -0.29117,0.436098 -0.39098,0.804882 -0.0421,0.155441 -0.0438,0.169609 -0.0339,0.274839 0.0124,0.131756 0.0327,0.204621 0.0769,0.275615 0.0502,0.08061 0.0882,0.10665 0.26784,0.183447 0.0915,0.03912 0.20255,0.09228 0.24673,0.118132 l 0.0803,0.047 0.008,0.266457 c 0.0102,0.334586 0.0292,0.627443 0.0436,0.674136 0.0191,0.0618 0.0863,0.118823 0.19709,0.167149 0.17663,0.07705 0.22848,0.08038 0.35563,0.02278 0.13424,-0.06078 0.23017,-0.13659 0.26589,-0.210109 0.0146,-0.03002 0.0375,-0.06475 0.0509,-0.07715 0.0349,-0.03235 0.10267,-0.284995 0.12321,-0.459372 0.0223,-0.189557 0.0478,-0.327051 0.0787,-0.42495 0.0244,-0.07717 0.18916,-0.309945 0.39163,-0.553171 0.0278,-0.03345 0.10092,-0.103742 0.19934,-0.194041 -0.005,-0.02142 -0.009,-0.04331 -0.0128,-0.06613 -0.0204,-0.117241 -0.0306,-0.249419 -0.0306,-0.396503 z"
       id="path879"
       inkscape:connector-curvature="0"
       sodipodi:nodetypes="sccccccssccccccccccccccccsscccccccccccccccsscccccsscscccccccccccccccccccccccccccccccccccccccccccsc" />
    <path
       inkscape:connector-curvature="0"
       d="m 136.1378,63.589132 q -0.0808,0 -0.14529,-0.06417 -0.0633,-0.06417 -0.10896,-0.183356 -0.0445,-0.116126 -0.068,-0.287259 -0.0234,-0.168077 -0.0234,-0.378937 v -1.002348 q 0,-0.192525 -0.0187,-0.32393 -0.0188,-0.134462 -0.0539,-0.216972 -0.0352,-0.08251 -0.0855,-0.119182 -0.0492,-0.03667 -0.11014,-0.03973 v -0.595909 q 0.0621,-0.0061 0.11131,-0.04278 0.0504,-0.03973 0.0844,-0.122238 0.0351,-0.08251 0.0539,-0.213915 0.0187,-0.134462 0.0187,-0.326986 v -1.002349 q 0,-0.446167 0.0914,-0.678419 0.0926,-0.235307 0.25425,-0.235307 h 0.38314 v 0.580628 h -0.22027 q -0.10663,0 -0.15467,0.15891 -0.0469,0.158908 -0.0469,0.479782 v 0.919839 q 0,0.155853 -0.0199,0.287258 -0.0187,0.12835 -0.0516,0.22614 -0.0328,0.09779 -0.0773,0.165021 -0.0445,0.06417 -0.0937,0.09168 v 0.01222 q 0.0504,0.03056 0.0949,0.09779 0.0445,0.06417 0.0773,0.165021 0.0328,0.09779 0.0515,0.226139 0.0188,0.125294 0.0188,0.281147 v 0.919838 q 0,0.32393 0.0469,0.479783 0.048,0.158909 0.15467,0.158909 h 0.22027 v 0.583685 z"
       style="font-style:normal;font-variant:normal;font-weight:bold;font-stretch:normal;font-size:220.08349609px;line-height:1.25;font-family:'Liberation Mono';-inkscape-font-specification:'Liberation Mono Bold';letter-spacing:0px;word-spacing:0px;fill:#ffffff;fill-opacity:1;stroke:#ffffff;stroke-width:0.30079827;stroke-miterlimit:4;stroke-dasharray:none;stroke-opacity:1"
       id="path919-9" />
    <path
       inkscape:connector-curvature="0"
       d="m 138.38978,63.589132 v -0.583685 h 0.22028 q 0.10662,0 0.15349,-0.158909 0.048,-0.155853 0.048,-0.479783 v -0.919838 q 0,-0.155853 0.0187,-0.281147 0.0187,-0.128349 0.0516,-0.226139 0.0328,-0.100846 0.0773,-0.165021 0.0445,-0.06723 0.0949,-0.09779 V 60.6646 q -0.0492,-0.0275 -0.0937,-0.09168 -0.0445,-0.06723 -0.0773,-0.165021 -0.0328,-0.09779 -0.0527,-0.22614 -0.0187,-0.131405 -0.0187,-0.287258 V 58.97466 q 0,-0.320874 -0.048,-0.479782 -0.0469,-0.15891 -0.15349,-0.15891 h -0.22028 V 57.75534 h 0.38314 q 0.16169,0 0.25308,0.235307 0.0926,0.232252 0.0926,0.678419 v 1.002349 q 0,0.192524 0.0187,0.326986 0.0187,0.131405 0.0527,0.213915 0.0351,0.08251 0.0844,0.122238 0.0504,0.03667 0.11248,0.04278 v 0.595909 q -0.0609,0.0031 -0.11131,0.03973 -0.0492,0.03667 -0.0844,0.119182 -0.0352,0.08251 -0.0539,0.216972 -0.0187,0.131405 -0.0187,0.32393 v 1.002348 q 0,0.21086 -0.0234,0.378937 -0.0234,0.171133 -0.0691,0.287259 -0.0445,0.119182 -0.10896,0.183356 -0.0633,0.06417 -0.14412,0.06417 z"
       style="font-style:normal;font-variant:normal;font-weight:bold;font-stretch:normal;font-size:220.08349609px;line-height:1.25;font-family:'Liberation Mono';-inkscape-font-specification:'Liberation Mono Bold';letter-spacing:0px;word-spacing:0px;fill:#ffffff;fill-opacity:1;stroke:#ffffff;stroke-width:0.30079827;stroke-miterlimit:4;stroke-dasharray:none;stroke-opacity:1"
       id="path921-3" />
    <g
       id="text945"
       style="font-style:normal;font-variant:normal;font-weight:900;font-stretch:normal;font-size:8.46666622px;line-height:1.25;font-family:Overpass;-inkscape-font-specification:'Overpass Heavy';letter-spacing:0px;word-spacing:0px;fill:#ffffff;fill-opacity:1;stroke:none;stroke-width:0.26458332"
       aria-label="BONES-BRIGADE "
       transform="matrix(0.57045379,0,0,0.57045379,54.938255,27.436432)">
      <path
         inkscape:connector-curvature="0"
         id="path957"
         style="fill:#ffffff;stroke-width:0.26458332"
         d="m 160.46218,55.34161 v 5.926666 h 2.90407 c 1.50706,0 2.04046,-0.9144 2.04046,-1.778 0,-0.474133 -0.23706,-1.075266 -0.8636,-1.312333 0.49954,-0.237067 0.66887,-0.7112 0.66887,-1.227667 0,-0.804333 -0.49107,-1.608666 -1.9558,-1.608666 z m 2.667,2.3114 h -1.38007 v -1.109134 h 1.51554 c 0.54186,0 0.635,0.287867 0.635,0.550334 0,0.338666 -0.23707,0.5588 -0.77047,0.5588 z m 0.29633,2.404533 h -1.6764 v -1.2446 h 1.4478 c 0.75354,0 0.90594,0.338667 0.90594,0.651933 0,0.262467 -0.16087,0.592667 -0.67734,0.592667 z" />
      <path
         inkscape:connector-curvature="0"
         id="path959"
         style="fill:#ffffff;stroke-width:0.26458332"
         d="m 168.78716,61.369876 c 1.91347,0 2.62467,-1.6002 2.62467,-3.064933 0,-1.464733 -0.7112,-3.064933 -2.62467,-3.064933 -1.92193,0 -2.63313,1.6002 -2.63313,3.064933 0,1.464733 0.7112,3.064933 2.63313,3.064933 z m 0,-1.2446 c -0.97367,0 -1.2954,-0.999066 -1.2954,-1.820333 0,-0.795867 0.31327,-1.8288 1.2954,-1.8288 0.97367,0 1.28693,0.9906 1.28693,1.8288 0,0.7874 -0.34713,1.820333 -1.28693,1.820333 z" />
      <path
         inkscape:connector-curvature="0"
         id="path961"
         style="fill:#ffffff;stroke-width:0.26458332"
         d="M 177.32751,61.268276 V 55.34161 h -1.28693 v 3.0988 c 0,0.09313 0.008,0.3302 0.0254,0.448733 -0.0508,-0.127 -0.18627,-0.3556 -0.24553,-0.440267 l -2.17594,-3.107266 h -1.17686 v 5.926666 h 1.27 v -3.141133 c 0,-0.110067 0,-0.3048 -0.0254,-0.448733 0.0677,0.135466 0.19473,0.372533 0.254,0.448733 l 2.2352,3.141133 z" />
      <path
         inkscape:connector-curvature="0"
         id="path963"
         style="fill:#ffffff;stroke-width:0.26458332"
         d="m 178.58614,61.268276 h 4.42806 V 60.04061 h -3.14113 v -1.2192 h 1.65947 v -1.2192 h -1.65947 v -1.0414 h 2.9718 v -1.2192 h -4.25873 z" />
      <path
         inkscape:connector-curvature="0"
         id="path965"
         style="fill:#ffffff;stroke-width:0.26458332"
         d="m 186.01749,61.369876 c 1.23613,0 2.2098,-0.668866 2.2098,-1.820333 0,-1.312333 -1.15993,-1.684867 -2.0574,-1.972733 -0.55033,-0.186267 -1.00753,-0.3302 -1.00753,-0.635 0,-0.313267 0.254,-0.4826 0.71966,-0.4826 0.5334,0 0.8128,0.270933 0.97367,0.635 l 1.15147,-0.372534 c -0.2286,-0.8382 -0.9652,-1.481666 -2.0574,-1.481666 -1.3208,0 -2.07434,0.762 -2.07434,1.6764 0,1.236133 1.04987,1.566333 1.93887,1.8542 0.61807,0.194733 1.12607,0.3556 1.12607,0.770466 0,0.4064 -0.3556,0.6096 -0.889,0.6096 -0.54187,0 -0.99907,-0.389466 -1.26154,-0.948266 l -1.15146,0.4318 c 0.3556,1.083733 1.22766,1.735666 2.37913,1.735666 z" />
      <path
         inkscape:connector-curvature="0"
         id="path967"
         style="fill:#ffffff;stroke-width:0.26458332"
         d="m 189.23562,59.35481 h 2.30293 v -1.1684 h -2.30293 z" />
      <path
         inkscape:connector-curvature="0"
         id="path969"
         style="fill:#ffffff;stroke-width:0.26458332"
         d="m 192.80749,55.34161 v 5.926666 h 2.90407 c 1.50706,0 2.04046,-0.9144 2.04046,-1.778 0,-0.474133 -0.23706,-1.075266 -0.8636,-1.312333 0.49954,-0.237067 0.66887,-0.7112 0.66887,-1.227667 0,-0.804333 -0.49107,-1.608666 -1.9558,-1.608666 z m 2.667,2.3114 h -1.38007 v -1.109134 h 1.51554 c 0.54186,0 0.635,0.287867 0.635,0.550334 0,0.338666 -0.23707,0.5588 -0.77047,0.5588 z m 0.29633,2.404533 h -1.6764 v -1.2446 h 1.4478 c 0.75354,0 0.90594,0.338667 0.90594,0.651933 0,0.262467 -0.16087,0.592667 -0.67734,0.592667 z" />
      <path
         inkscape:connector-curvature="0"
         id="path971"
         style="fill:#ffffff;stroke-width:0.26458332"
         d="m 198.81022,61.268276 h 1.28694 V 59.17701 h 1.143 l 1.07526,2.091266 h 1.43934 l -1.10914,-2.286 c 0.69427,-0.287866 1.07527,-1.075266 1.07527,-1.7272 0,-1.024466 -0.508,-1.913466 -2.02353,-1.913466 h -2.88714 z m 1.28694,-3.310466 v -1.397 h 1.61713 c 0.51647,0 0.66887,0.347133 0.66887,0.694266 0,0.372534 -0.16087,0.702734 -0.66887,0.702734 z" />
      <path
         inkscape:connector-curvature="0"
         id="path973"
         style="fill:#ffffff;stroke-width:0.26458332"
         d="m 204.80568,61.268276 h 1.28694 V 55.34161 h -1.28694 z" />
      <path
         inkscape:connector-curvature="0"
         id="path975"
         style="fill:#ffffff;stroke-width:0.26458332"
         d="m 209.79718,61.369876 c 1.26153,0 2.22673,-0.8382 2.22673,-2.3622 v -0.931333 h -2.286 v 1.227667 h 0.9652 v 0.04233 c 0,0.423333 -0.42333,0.7874 -0.90593,0.7874 -0.92287,0 -1.27847,-0.905933 -1.27847,-1.8288 0,-0.804333 0.29633,-1.8288 1.27847,-1.8288 0.46566,0 0.80433,0.347133 1.05833,0.753533 l 1.12607,-0.635 c -0.4318,-0.694266 -1.02447,-1.354666 -2.1844,-1.354666 -1.79494,0 -2.6162,1.634066 -2.6162,3.064933 0,1.5494 0.7874,3.064933 2.6162,3.064933 z" />
      <path
         inkscape:connector-curvature="0"
         id="path977"
         style="fill:#ffffff;stroke-width:0.26458332"
         d="m 216.64023,61.268276 h 1.40547 l -2.34527,-5.926666 h -1.23613 l -2.3368,5.926666 h 1.40546 l 0.44027,-1.151466 h 2.22673 z m -0.87207,-2.3368 h -1.3716 l 0.508,-1.278466 c 0.0593,-0.143934 0.14394,-0.347134 0.1778,-0.499534 0.0423,0.1524 0.11854,0.3556 0.1778,0.499534 z" />
      <path
         inkscape:connector-curvature="0"
         id="path979"
         style="fill:#ffffff;stroke-width:0.26458332"
         d="m 218.78626,55.34161 v 5.926666 h 2.15054 c 2.17593,0 2.92946,-1.617133 2.92946,-2.963333 0,-1.481667 -0.82126,-2.963333 -2.8956,-2.963333 z m 2.286,4.699 h -0.99906 v -3.4798 h 1.0922 c 0.9398,0 1.36313,0.905933 1.36313,1.744133 0,0.804333 -0.39793,1.735667 -1.45627,1.735667 z" />
      <path
         inkscape:connector-curvature="0"
         id="path981"
         style="fill:#ffffff;stroke-width:0.26458332"
         d="m 224.92129,61.268276 h 4.42807 V 60.04061 h -3.14113 v -1.2192 h 1.65946 v -1.2192 h -1.65946 v -1.0414 h 2.9718 v -1.2192 h -4.25874 z" />
    </g>
    <g
       id="text949"
       style="font-style:normal;font-variant:normal;font-weight:100;font-stretch:normal;font-size:8.46666622px;line-height:1.25;font-family:Overpass;-inkscape-font-specification:'Overpass Thin';letter-spacing:0px;word-spacing:0px;fill:#ffffff;fill-opacity:1;stroke:none;stroke-width:0.26458332"
       aria-label="Kafka Charter"
       transform="matrix(0.57045379,0,0,0.57045379,54.938255,27.436432)">
      <g
         aria-label="Kafka Charter"
         style="font-style:normal;font-variant:normal;font-weight:300;font-stretch:normal;font-size:8.65782452px;line-height:1.25;font-family:Overpass;-inkscape-font-specification:'Overpass Light';letter-spacing:0px;word-spacing:0px;fill:#ffffff;fill-opacity:1;stroke:none;stroke-width:0.12271693"
         id="text917">
        <path
           d="m 237.20967,61.378468 h 0.68397 l -2.17311,-3.999915 1.65364,-2.060563 h -0.65799 l -2.39822,3.012923 V 55.31799 h -0.60605 v 6.060478 h 0.60605 v -2.259693 l 0.98699,-1.229411 z"
           style="font-style:normal;font-variant:normal;font-weight:300;font-stretch:normal;font-size:8.65782452px;font-family:Overpass;-inkscape-font-specification:'Overpass Light';fill:#ffffff;stroke-width:0.12271693"
           id="path919" />
        <path
           d="m 241.43713,61.378468 h 0.56276 V 58.38286 c 0,-1.255384 -0.83981,-1.532435 -1.47183,-1.532435 -0.60605,0 -1.19478,0.259735 -1.54975,0.484839 l 0.17315,0.519469 c 0.329,-0.225103 0.87444,-0.47618 1.31599,-0.47618 0.4935,0 0.96968,0.190472 0.96968,1.082228 v 0.372286 c -0.43289,-0.233761 -0.8225,-0.311682 -1.19478,-0.311682 -0.83981,0 -1.61036,0.44155 -1.61036,1.463173 0,0.99565 0.61471,1.497803 1.50646,1.497803 0.47618,0 0.94371,-0.216445 1.29868,-0.536785 z m -1.23807,-0.424234 c -0.64068,0 -1.00431,-0.389602 -1.00431,-0.969676 0,-0.640679 0.51081,-0.935045 1.1082,-0.935045 0.38095,0 0.84847,0.173156 1.13418,0.363628 v 0.857125 c -0.2684,0.328997 -0.70129,0.683968 -1.23807,0.683968 z"
           style="font-style:normal;font-variant:normal;font-weight:300;font-stretch:normal;font-size:8.65782452px;font-family:Overpass;-inkscape-font-specification:'Overpass Light';fill:#ffffff;stroke-width:0.12271693"
           id="path921" />
        <path
           d="m 244.18626,57.499762 h 1.06491 v -0.545443 h -1.06491 v -0.657994 c 0,-0.24242 0.009,-0.51947 0.43289,-0.51947 0.25107,0 0.4502,0.07792 0.63202,0.173157 v -0.528128 c -0.19047,-0.103894 -0.42423,-0.207787 -0.75323,-0.207787 -0.45887,0 -0.91773,0.259734 -0.91773,0.986991 v 0.753231 h -0.70994 v 0.545443 h 0.70994 v 3.878706 h 0.60605 z"
           style="font-style:normal;font-variant:normal;font-weight:300;font-stretch:normal;font-size:8.65782452px;font-family:Overpass;-inkscape-font-specification:'Overpass Light';fill:#ffffff;stroke-width:0.12271693"
           id="path923" />
        <path
           d="m 249.67599,61.378468 -1.6623,-3.246685 1.1082,-1.177464 h -0.70128 l -1.56707,1.688276 v -3.515077 l -0.60604,0.294366 v 5.956584 h 0.60604 v -2.017274 l 0.73592,-0.787862 1.41988,2.805136 z"
           style="font-style:normal;font-variant:normal;font-weight:300;font-stretch:normal;font-size:8.65782452px;font-family:Overpass;-inkscape-font-specification:'Overpass Light';fill:#ffffff;stroke-width:0.12271693"
           id="path925" />
        <path
           d="m 253.00344,61.378468 h 0.56276 V 58.38286 c 0,-1.255384 -0.83981,-1.532435 -1.47183,-1.532435 -0.60605,0 -1.19478,0.259735 -1.54975,0.484839 l 0.17315,0.519469 c 0.329,-0.225103 0.87444,-0.47618 1.31599,-0.47618 0.4935,0 0.96968,0.190472 0.96968,1.082228 v 0.372286 c -0.43289,-0.233761 -0.82249,-0.311682 -1.19478,-0.311682 -0.83981,0 -1.61036,0.44155 -1.61036,1.463173 0,0.99565 0.61471,1.497803 1.50647,1.497803 0.47618,0 0.9437,-0.216445 1.29867,-0.536785 z m -1.23807,-0.424234 c -0.64068,0 -1.00431,-0.389602 -1.00431,-0.969676 0,-0.640679 0.51081,-0.935045 1.1082,-0.935045 0.38095,0 0.84847,0.173156 1.13418,0.363628 v 0.857125 c -0.26839,0.328997 -0.70128,0.683968 -1.23807,0.683968 z"
           style="font-style:normal;font-variant:normal;font-weight:300;font-stretch:normal;font-size:8.65782452px;font-family:Overpass;-inkscape-font-specification:'Overpass Light';fill:#ffffff;stroke-width:0.12271693"
           id="path927" />
        <path
           d="m 259.28902,61.482361 c 1.0476,0 1.6623,-0.5541 1.93935,-1.108201 l -0.53678,-0.207788 c -0.27705,0.458865 -0.67531,0.770547 -1.40257,0.770547 -1.32465,0 -1.87875,-1.255385 -1.87875,-2.58869 0,-1.203438 0.4935,-2.58869 1.87875,-2.58869 0.70128,0 1.0476,0.354971 1.31599,0.744573 l 0.53678,-0.311681 c -0.30302,-0.493496 -0.76188,-0.978334 -1.85277,-0.978334 -1.74888,0 -2.51077,1.480487 -2.51077,3.134132 0,1.584382 0.70994,3.134132 2.51077,3.134132 z"
           style="font-style:normal;font-variant:normal;font-weight:300;font-stretch:normal;font-size:8.65782452px;font-family:Overpass;-inkscape-font-specification:'Overpass Light';fill:#ffffff;stroke-width:0.12271693"
           id="path929" />
        <path
           d="m 262.53165,61.378468 h 0.60604 v -2.718557 c 0,-0.961019 0.46753,-1.264043 1.09089,-1.264043 0.58873,0 1.03028,0.346313 1.03028,1.281358 v 2.701242 h 0.60605 v -2.450165 c 0,-1.463172 -0.50216,-2.077878 -1.58438,-2.077878 -0.46753,0 -0.87444,0.19913 -1.14284,0.59739 v -2.320297 l -0.60604,0.285708 z"
           style="font-style:normal;font-variant:normal;font-weight:300;font-stretch:normal;font-size:8.65782452px;font-family:Overpass;-inkscape-font-specification:'Overpass Light';fill:#ffffff;stroke-width:0.12271693"
           id="path931" />
        <path
           d="m 269.93016,61.378468 h 0.56276 V 58.38286 c 0,-1.255384 -0.83981,-1.532435 -1.47183,-1.532435 -0.60605,0 -1.19478,0.259735 -1.54975,0.484839 l 0.17316,0.519469 c 0.32899,-0.225103 0.87444,-0.47618 1.31598,-0.47618 0.4935,0 0.96968,0.190472 0.96968,1.082228 v 0.372286 c -0.43289,-0.233761 -0.82249,-0.311682 -1.19478,-0.311682 -0.83981,0 -1.61035,0.44155 -1.61035,1.463173 0,0.99565 0.6147,1.497803 1.50646,1.497803 0.47618,0 0.9437,-0.216445 1.29867,-0.536785 z m -1.23807,-0.424234 c -0.64068,0 -1.00431,-0.389602 -1.00431,-0.969676 0,-0.640679 0.51082,-0.935045 1.10821,-0.935045 0.38094,0 0.84846,0.173156 1.13417,0.363628 v 0.857125 c -0.26839,0.328997 -0.70128,0.683968 -1.23807,0.683968 z"
           style="font-style:normal;font-variant:normal;font-weight:300;font-stretch:normal;font-size:8.65782452px;font-family:Overpass;-inkscape-font-specification:'Overpass Light';fill:#ffffff;stroke-width:0.12271693"
           id="path933" />
        <path
           d="m 271.88277,61.378468 h 0.60605 v -2.502112 c 0,-1.090886 0.63202,-1.419883 1.07357,-1.419883 0.28571,0 0.45887,0.09524 0.57142,0.164499 l 0.0952,-0.588732 c -0.12121,-0.08658 -0.34631,-0.181815 -0.62336,-0.181815 -0.54544,0 -0.91773,0.303024 -1.11686,0.727258 v -0.623364 h -0.60605 z"
           style="font-style:normal;font-variant:normal;font-weight:300;font-stretch:normal;font-size:8.65782452px;font-family:Overpass;-inkscape-font-specification:'Overpass Light';fill:#ffffff;stroke-width:0.12271693"
           id="path935" />
        <path
           d="m 276.42366,61.482361 c 0.33766,0 0.58008,-0.07792 0.80518,-0.19913 l 0.0693,-0.632021 c -0.16449,0.112552 -0.37228,0.259735 -0.66665,0.259735 -0.42423,0 -0.47618,-0.320339 -0.47618,-0.701284 v -2.709899 h 1.12552 v -0.545443 h -1.12552 v -1.826801 l -0.60605,0.303024 v 1.523777 h -0.75323 v 0.545443 h 0.75323 v 2.969634 c 0,0.580074 0.24242,1.012965 0.87444,1.012965 z"
           style="font-style:normal;font-variant:normal;font-weight:300;font-stretch:normal;font-size:8.65782452px;font-family:Overpass;-inkscape-font-specification:'Overpass Light';fill:#ffffff;stroke-width:0.12271693"
           id="path937" />
        <path
           d="m 280.04588,61.482361 c 0.51082,0 1.00431,-0.216445 1.35062,-0.502153 l -0.32899,-0.406918 c -0.33766,0.251077 -0.67531,0.346313 -0.99565,0.346313 -0.75323,0 -1.20344,-0.606048 -1.30733,-1.506462 h 3.01292 c 0.0173,-0.190472 0.0173,-0.328997 0.0173,-0.424233 0,-1.489146 -0.80517,-2.138483 -1.74888,-2.138483 -1.13417,0 -1.92203,0.839809 -1.92203,2.311639 0,1.246727 0.72725,2.320297 1.92203,2.320297 z m -1.29867,-2.614663 c 0.0519,-1.004307 0.58873,-1.47183 1.29867,-1.47183 0.46753,0 1.12552,0.277051 1.13418,1.47183 z"
           style="font-style:normal;font-variant:normal;font-weight:300;font-stretch:normal;font-size:8.65782452px;font-family:Overpass;-inkscape-font-specification:'Overpass Light';fill:#ffffff;stroke-width:0.12271693"
           id="path939" />
        <path
           d="m 283.00943,61.378468 h 0.60605 v -2.502112 c 0,-1.090886 0.63202,-1.419883 1.07357,-1.419883 0.2857,0 0.45886,0.09524 0.57141,0.164499 l 0.0952,-0.588732 c -0.12121,-0.08658 -0.34631,-0.181815 -0.62336,-0.181815 -0.54545,0 -0.91773,0.303024 -1.11686,0.727258 v -0.623364 h -0.60605 z"
           style="font-style:normal;font-variant:normal;font-weight:300;font-stretch:normal;font-size:8.65782452px;font-family:Overpass;-inkscape-font-specification:'Overpass Light';fill:#ffffff;stroke-width:0.12271693"
           id="path941" />
      </g>
    </g>
  </g>
</svg>
