<?xml version="1.0" encoding="UTF-8" standalone="no"?>
<!-- Created with Inkscape (http://www.inkscape.org/) -->

<svg
   xmlns:dc="http://purl.org/dc/elements/1.1/"
   xmlns:cc="http://creativecommons.org/ns#"
   xmlns:rdf="http://www.w3.org/1999/02/22-rdf-syntax-ns#"
   xmlns:svg="http://www.w3.org/2000/svg"
   xmlns="http://www.w3.org/2000/svg"
   xmlns:sodipodi="http://sodipodi.sourceforge.net/DTD/sodipodi-0.dtd"
   xmlns:inkscape="http://www.inkscape.org/namespaces/inkscape"
   width="405.30609"
   height="43.098206"
   viewBox="0 0 107.23724 11.403067"
   version="1.1"
   id="svg8"
   inkscape:version="0.92.3 (2405546, 2018-03-11)"
   sodipodi:docname="brand.svg">
  <defs
     id="defs2" />
  <sodipodi:namedview
     id="base"
     pagecolor="#000000"
     bordercolor="#666666"
     borderopacity="1.0"
     inkscape:pageopacity="0"
     inkscape:pageshadow="2"
     inkscape:zoom="1.979899"
     inkscape:cx="276.70453"
     inkscape:cy="-81.301431"
     inkscape:document-units="mm"
     inkscape:current-layer="layer1"
     showgrid="false"
     fit-margin-top="4"
     fit-margin-left="4"
     fit-margin-right="4"
     fit-margin-bottom="4"
     inkscape:window-width="1912"
     inkscape:window-height="1052"
     inkscape:window-x="4"
     inkscape:window-y="4"
     inkscape:window-maximized="1"
     units="px" />
  <metadata
     id="metadata5">
    <rdf:RDF>
      <cc:Work
         rdf:about="">
        <dc:format>image/svg+xml</dc:format>
        <dc:type
           rdf:resource="http://purl.org/dc/dcmitype/StillImage" />
        <dc:title></dc:title>
      </cc:Work>
    </rdf:RDF>
  </metadata>
  <g
     inkscape:label="Layer 1"
     inkscape:groupmode="layer"
     id="layer1"
     transform="translate(-131.7593,-54.971017)">
    <path
       style="fill:#ffffff;stroke:#ffffff;stroke-width:0.22051257;stroke-miterlimit:4;stroke-dasharray:none;stroke-opacity:1"
       d="m 141.04586,56.139628 c -0.0674,-3.69e-4 -0.13377,0.02631 -0.32648,0.119141 l -0.16875,0.0813 -0.0187,0.151856 c -0.0384,0.311538 -0.13104,0.956015 -0.14688,1.021625 -0.027,0.112026 -0.18362,0.275955 -0.64674,0.677047 -0.0428,0.0371 -0.0831,0.07167 -0.12363,0.106257 0.008,0.08532 0.0128,0.178365 0.0128,0.279418 v 1.048791 c 0,0.04011 8.3e-4,0.07818 0.002,0.114678 0.30719,-0.236481 0.5889,-0.451064 0.81081,-0.616972 l 0.3328,-0.248799 0.13771,0.03361 c 0.20018,0.04886 0.34846,0.10491 0.47987,0.181389 l 0.11581,0.06741 0.0491,-0.04987 c 0.0662,-0.06718 0.19262,-0.286374 0.2609,-0.452386 0.11357,-0.27617 0.13919,-0.493782 0.0759,-0.645031 -0.0581,-0.13891 -0.23971,-0.342616 -0.43908,-0.492553 -0.0424,-0.03193 -0.0773,-0.06747 -0.0775,-0.07897 -2e-4,-0.01152 0.0174,-0.111784 0.039,-0.222837 l 0.0393,-0.20188 -0.0533,-0.332974 c -0.0486,-0.303272 -0.0571,-0.339272 -0.0958,-0.404226 -0.0501,-0.08419 -0.10113,-0.116091 -0.211,-0.131948 -0.0172,-0.0025 -0.0329,-0.004 -0.0484,-0.0041 z m -6.92195,0.184338 c -0.15884,0.0027 -0.33576,0.0525 -0.44254,0.140563 -0.10548,0.08701 -0.10773,0.09348 -0.11146,0.318383 -0.002,0.109283 0.001,0.34176 0.006,0.516614 l 0.01,0.317916 -0.15308,0.09624 c -0.0842,0.05293 -0.22295,0.153968 -0.30832,0.224506 l -0.15519,0.128261 -0.0248,0.283532 c -0.0337,0.385493 -0.0216,0.474554 0.0928,0.684498 0.0728,0.133565 0.16186,0.239759 0.29133,0.347333 0.0959,0.07966 0.10336,0.08258 0.2032,0.07928 0.0618,-0.002 0.15924,-0.02436 0.24135,-0.05534 0.50017,-0.188584 0.59462,-0.208999 0.79183,-0.171028 0.20634,0.03974 0.27098,0.07531 0.49345,0.271541 0.045,0.03969 0.12683,0.114172 0.22356,0.202889 7.6e-4,-0.02715 0.001,-0.05505 0.001,-0.0841 v -1.048791 c 0,-0.09017 0.003,-0.173872 0.0101,-0.251515 -0.14592,-0.134132 -0.27386,-0.252287 -0.3371,-0.31229 -0.18557,-0.176046 -0.24787,-0.312926 -0.28831,-0.633465 -0.0295,-0.233371 -0.0914,-0.529609 -0.15745,-0.752568 -0.0528,-0.178132 -0.0627,-0.199747 -0.10808,-0.234479 -0.0571,-0.04374 -0.14716,-0.0656 -0.24702,-0.06791 -0.0104,-2.32e-4 -0.0209,-2.66e-4 -0.0315,-6.6e-5 z m 5.50358,5.584727 v 0.859484 c 0,0.147084 -0.0102,0.279262 -0.0306,0.396503 -0.01,0.05824 -0.0222,0.11183 -0.0368,0.160937 0.23392,0.211819 0.41571,0.389946 0.57067,0.556781 0.20468,0.220396 0.196,0.200372 0.20544,0.474158 0.009,0.267387 0.0236,0.414391 0.0461,0.474119 0.009,0.02341 0.0841,0.112577 0.16714,0.198077 0.12951,0.133345 0.1611,0.157454 0.22189,0.169475 0.12757,0.02519 0.36491,-0.02434 0.48297,-0.100823 0.11458,-0.07423 0.13303,-0.137183 0.17391,-0.593532 0.0102,-0.113914 0.0231,-0.227925 0.0287,-0.25334 0.0139,-0.06324 0.0617,-0.11007 0.22301,-0.218101 0.15584,-0.104416 0.2119,-0.162425 0.26289,-0.272046 0.0336,-0.07235 0.0357,-0.08676 0.0393,-0.278759 0.006,-0.314201 -0.0416,-0.559442 -0.16801,-0.86647 -0.0553,-0.134339 -0.20853,-0.410348 -0.27763,-0.500159 -0.0384,-0.04987 -0.0436,-0.05139 -0.11833,-0.03357 -0.11429,0.02726 -0.26182,0.105463 -0.39234,0.208012 -0.33266,0.261346 -0.35378,0.275219 -0.41887,0.274994 -0.0698,-2.32e-4 -0.16566,-0.06249 -0.76314,-0.495774 -0.0561,-0.04067 -0.13279,-0.09758 -0.21635,-0.159967 z m -4.34424,0.01265 c -0.13263,0.114539 -0.23794,0.199189 -0.33907,0.273714 -0.37097,0.273369 -0.57073,0.370612 -0.72954,0.355172 -0.0996,-0.0097 -0.15519,-0.03824 -0.47589,-0.244569 -0.092,-0.05919 -0.13186,-0.07432 -0.20096,-0.07614 -0.0824,-0.0022 -0.09,0.0016 -0.17213,0.08565 -0.15769,0.161283 -0.29117,0.436098 -0.39098,0.804882 -0.0421,0.155441 -0.0438,0.169609 -0.0339,0.274839 0.0124,0.131756 0.0327,0.204621 0.0769,0.275615 0.0502,0.08061 0.0882,0.10665 0.26784,0.183447 0.0915,0.03912 0.20255,0.09228 0.24673,0.118132 l 0.0803,0.047 0.008,0.266457 c 0.0102,0.334586 0.0292,0.627443 0.0436,0.674136 0.0191,0.0618 0.0863,0.118823 0.19709,0.167149 0.17663,0.07705 0.22848,0.08038 0.35563,0.02278 0.13424,-0.06078 0.23017,-0.13659 0.26589,-0.210109 0.0146,-0.03002 0.0375,-0.06475 0.0509,-0.07715 0.0349,-0.03235 0.10267,-0.284995 0.12321,-0.459372 0.0223,-0.189557 0.0478,-0.327051 0.0787,-0.42495 0.0244,-0.07717 0.18916,-0.309945 0.39163,-0.553171 0.0278,-0.03345 0.10092,-0.103742 0.19934,-0.194041 -0.005,-0.02142 -0.009,-0.04331 -0.0128,-0.06613 -0.0204,-0.117241 -0.0306,-0.249419 -0.0306,-0.396503 z"
       id="path879"
       inkscape:connector-curvature="0"
       sodipodi:nodetypes="sccccccssccccccccccccccccsscccccccccccccccsscccccsscscccccccccccccccccccccccccccccccccccccccccccsc" />
    <path
       inkscape:connector-curvature="0"
       d="m 136.1378,63.589132 q -0.0808,0 -0.14529,-0.06417 -0.0633,-0.06417 -0.10896,-0.183356 -0.0445,-0.116126 -0.068,-0.287259 -0.0234,-0.168077 -0.0234,-0.378937 v -1.002348 q 0,-0.192525 -0.0187,-0.32393 -0.0188,-0.134462 -0.0539,-0.216972 -0.0352,-0.08251 -0.0855,-0.119182 -0.0492,-0.03667 -0.11014,-0.03973 v -0.595909 q 0.0621,-0.0061 0.11131,-0.04278 0.0504,-0.03973 0.0844,-0.122238 0.0351,-0.08251 0.0539,-0.213915 0.0187,-0.134462 0.0187,-0.326986 v -1.002349 q 0,-0.446167 0.0914,-0.678419 0.0926,-0.235307 0.25425,-0.235307 h 0.38314 v 0.580628 h -0.22027 q -0.10663,0 -0.15467,0.15891 -0.0469,0.158908 -0.0469,0.479782 v 0.919839 q 0,0.155853 -0.0199,0.287258 -0.0187,0.12835 -0.0516,0.22614 -0.0328,0.09779 -0.0773,0.165021 -0.0445,0.06417 -0.0937,0.09168 v 0.01222 q 0.0504,0.03056 0.0949,0.09779 0.0445,0.06417 0.0773,0.165021 0.0328,0.09779 0.0515,0.226139 0.0188,0.125294 0.0188,0.281147 v 0.919838 q 0,0.32393 0.0469,0.479783 0.048,0.158909 0.15467,0.158909 h 0.22027 v 0.583685 z"
       style="font-style:normal;font-variant:normal;font-weight:bold;font-stretch:normal;font-size:220.08349609px;line-height:1.25;font-family:'Liberation Mono';-inkscape-font-specification:'Liberation Mono Bold';letter-spacing:0px;word-spacing:0px;fill:#ffffff;fill-opacity:1;stroke:#ffffff;stroke-width:0.30079827;stroke-miterlimit:4;stroke-dasharray:none;stroke-opacity:1"
       id="path919-9" />
    <path
       inkscape:connector-curvature="0"
       d="m 138.38978,63.589132 v -0.583685 h 0.22028 q 0.10662,0 0.15349,-0.158909 0.048,-0.155853 0.048,-0.479783 v -0.919838 q 0,-0.155853 0.0187,-0.281147 0.0187,-0.128349 0.0516,-0.226139 0.0328,-0.100846 0.0773,-0.165021 0.0445,-0.06723 0.0949,-0.09779 V 60.6646 q -0.0492,-0.0275 -0.0937,-0.09168 -0.0445,-0.06723 -0.0773,-0.165021 -0.0328,-0.09779 -0.0527,-0.22614 -0.0187,-0.131405 -0.0187,-0.287258 V 58.97466 q 0,-0.320874 -0.048,-0.479782 -0.0469,-0.15891 -0.15349,-0.15891 h -0.22028 V 57.75534 h 0.38314 q 0.16169,0 0.25308,0.235307 0.0926,0.232252 0.0926,0.678419 v 1.002349 q 0,0.192524 0.0187,0.326986 0.0187,0.131405 0.0527,0.213915 0.0351,0.08251 0.0844,0.122238 0.0504,0.03667 0.11248,0.04278 v 0.595909 q -0.0609,0.0031 -0.11131,0.03973 -0.0492,0.03667 -0.0844,0.119182 -0.0352,0.08251 -0.0539,0.216972 -0.0187,0.131405 -0.0187,0.32393 v 1.002348 q 0,0.21086 -0.0234,0.378937 -0.0234,0.171133 -0.0691,0.287259 -0.0445,0.119182 -0.10896,0.183356 -0.0633,0.06417 -0.14412,0.06417 z"
       style="font-style:normal;font-variant:normal;font-weight:bold;font-stretch:normal;font-size:220.08349609px;line-height:1.25;font-family:'Liberation Mono';-inkscape-font-specification:'Liberation Mono Bold';letter-spacing:0px;word-spacing:0px;fill:#ffffff;fill-opacity:1;stroke:#ffffff;stroke-width:0.30079827;stroke-miterlimit:4;stroke-dasharray:none;stroke-opacity:1"
       id="path921-3" />
    <g
       aria-label="REACTIVE KAFKA SPARKLINE"
       style="font-style:normal;font-variant:normal;font-weight:900;font-stretch:normal;font-size:6.3499999px;line-height:1.25;font-family:Overpass;-inkscape-font-specification:'Overpass Heavy';letter-spacing:0px;word-spacing:0px;fill:#ffffff;fill-opacity:1;stroke:none;stroke-width:0.26458332"
       id="text42">
      <path
         d="m 147.06901,62.89505 h 0.9652 V 61.3266 h 0.85725 l 0.80645,1.56845 h 1.0795 l -0.83185,-1.7145 c 0.5207,-0.2159 0.80645,-0.80645 0.80645,-1.2954 0,-0.76835 -0.381,-1.4351 -1.51765,-1.4351 h -2.16535 z m 0.9652,-2.48285 v -1.04775 h 1.21285 c 0.38735,0 0.50165,0.26035 0.50165,0.5207 0,0.2794 -0.12065,0.52705 -0.50165,0.52705 z"
         style="font-style:normal;font-variant:normal;font-weight:900;font-stretch:normal;font-size:6.3499999px;font-family:Overpass;-inkscape-font-specification:'Overpass Heavy';fill:#ffffff;stroke-width:0.26458332"
         id="path44" />
      <path
         d="m 151.53385,62.89505 h 3.32105 V 61.9743 h -2.35585 v -0.9144 h 1.2446 v -0.9144 h -1.2446 v -0.78105 h 2.22885 v -0.9144 h -3.19405 z"
         style="font-style:normal;font-variant:normal;font-weight:900;font-stretch:normal;font-size:6.3499999px;font-family:Overpass;-inkscape-font-specification:'Overpass Heavy';fill:#ffffff;stroke-width:0.26458332"
         id="path46" />
      <path
         d="m 158.60597,62.89505 h 1.0541 l -1.75895,-4.445 h -0.9271 l -1.7526,4.445 h 1.0541 l 0.3302,-0.8636 h 1.67005 z m -0.65405,-1.7526 h -1.0287 l 0.381,-0.95885 c 0.0445,-0.10795 0.10795,-0.26035 0.13335,-0.37465 0.0318,0.1143 0.0889,0.2667 0.13335,0.37465 z"
         style="font-style:normal;font-variant:normal;font-weight:900;font-stretch:normal;font-size:6.3499999px;font-family:Overpass;-inkscape-font-specification:'Overpass Heavy';fill:#ffffff;stroke-width:0.26458332"
         id="path48" />
      <path
         d="m 161.73155,62.95855 c 0.81915,0 1.3208,-0.4826 1.6383,-1.1684 l -0.88265,-0.3302 c -0.2032,0.33655 -0.4318,0.5715 -0.75565,0.5715 -0.6096,0 -0.86995,-0.73025 -0.86995,-1.3589 0,-0.6096 0.20955,-1.3589 0.86995,-1.3589 0.34925,0 0.5461,0.1905 0.76835,0.52705 l 0.8636,-0.38735 c -0.2159,-0.53975 -0.7747,-1.0668 -1.63195,-1.0668 -1.3843,0 -1.87325,1.27635 -1.87325,2.286 0,1.09855 0.47625,2.286 1.87325,2.286 z"
         style="font-style:normal;font-variant:normal;font-weight:900;font-stretch:normal;font-size:6.3499999px;font-family:Overpass;-inkscape-font-specification:'Overpass Heavy';fill:#ffffff;stroke-width:0.26458332"
         id="path50" />
      <path
         d="m 165.9292,59.37715 h 1.27635 v -0.9271 h -3.5179 v 0.9271 h 1.27635 v 3.5179 h 0.9652 z"
         style="font-style:normal;font-variant:normal;font-weight:900;font-stretch:normal;font-size:6.3499999px;font-family:Overpass;-inkscape-font-specification:'Overpass Heavy';fill:#ffffff;stroke-width:0.26458332"
         id="path52" />
      <path
         d="m 167.89949,62.89505 h 0.9652 v -4.445 h -0.9652 z"
         style="font-style:normal;font-variant:normal;font-weight:900;font-stretch:normal;font-size:6.3499999px;font-family:Overpass;-inkscape-font-specification:'Overpass Heavy';fill:#ffffff;stroke-width:0.26458332"
         id="path54" />
      <path
         d="m 170.94878,62.89505 h 0.92075 l 1.59385,-4.445 h -1.03505 l -0.95885,2.80035 c -0.0318,0.0889 -0.0508,0.1524 -0.0572,0.1905 -0.0127,-0.0381 -0.0254,-0.1143 -0.0572,-0.1905 l -0.95885,-2.80035 h -1.04775 z"
         style="font-style:normal;font-variant:normal;font-weight:900;font-stretch:normal;font-size:6.3499999px;font-family:Overpass;-inkscape-font-specification:'Overpass Heavy';fill:#ffffff;stroke-width:0.26458332"
         id="path56" />
      <path
         d="m 173.92008,62.89505 h 3.32105 V 61.9743 h -2.35585 v -0.9144 h 1.2446 v -0.9144 h -1.2446 v -0.78105 h 2.22885 v -0.9144 h -3.19405 z"
         style="font-style:normal;font-variant:normal;font-weight:900;font-stretch:normal;font-size:6.3499999px;font-family:Overpass;-inkscape-font-specification:'Overpass Heavy';fill:#ffffff;stroke-width:0.26458332"
         id="path58" />
      <path
         d="m 182.49596,62.89505 h 1.1303 l -1.5621,-2.8321 1.32715,-1.6129 h -1.16205 l -1.6637,2.10185 v -2.10185 h -0.9652 v 4.445 h 0.9652 v -0.9652 l 0.84455,-1.0541 z"
         style="font-style:normal;font-variant:normal;font-weight:900;font-stretch:normal;font-size:6.3499999px;font-family:Overpass;-inkscape-font-specification:'Overpass Heavy';fill:#ffffff;stroke-width:0.26458332"
         id="path60" />
      <path
         d="m 187.28019,62.89505 h 1.0541 l -1.75895,-4.445 h -0.9271 l -1.7526,4.445 h 1.0541 l 0.3302,-0.8636 h 1.67005 z m -0.65405,-1.7526 h -1.0287 l 0.381,-0.95885 c 0.0444,-0.10795 0.10795,-0.26035 0.13335,-0.37465 0.0317,0.1143 0.0889,0.2667 0.13335,0.37465 z"
         style="font-style:normal;font-variant:normal;font-weight:900;font-stretch:normal;font-size:6.3499999px;font-family:Overpass;-inkscape-font-specification:'Overpass Heavy';fill:#ffffff;stroke-width:0.26458332"
         id="path62" />
      <path
         d="m 188.88971,62.89505 h 0.9652 V 61.0599 h 1.33985 v -0.9144 h -1.33985 v -0.78105 h 2.1336 v -0.9144 h -3.0988 z"
         style="font-style:normal;font-variant:normal;font-weight:900;font-stretch:normal;font-size:6.3499999px;font-family:Overpass;-inkscape-font-specification:'Overpass Heavy';fill:#ffffff;stroke-width:0.26458332"
         id="path64" />
      <path
         d="m 195.46881,62.89505 h 1.1303 l -1.5621,-2.8321 1.32715,-1.6129 h -1.16205 l -1.6637,2.10185 v -2.10185 h -0.9652 v 4.445 h 0.9652 v -0.9652 l 0.84455,-1.0541 z"
         style="font-style:normal;font-variant:normal;font-weight:900;font-stretch:normal;font-size:6.3499999px;font-family:Overpass;-inkscape-font-specification:'Overpass Heavy';fill:#ffffff;stroke-width:0.26458332"
         id="path66" />
      <path
         d="m 200.25304,62.89505 h 1.0541 l -1.75895,-4.445 h -0.9271 l -1.7526,4.445 h 1.0541 l 0.3302,-0.8636 h 1.67005 z m -0.65405,-1.7526 h -1.0287 l 0.381,-0.95885 c 0.0445,-0.10795 0.10795,-0.26035 0.13335,-0.37465 0.0317,0.1143 0.0889,0.2667 0.13335,0.37465 z"
         style="font-style:normal;font-variant:normal;font-weight:900;font-stretch:normal;font-size:6.3499999px;font-family:Overpass;-inkscape-font-specification:'Overpass Heavy';fill:#ffffff;stroke-width:0.26458332"
         id="path68" />
      <path
         d="m 204.81918,62.97125 c 0.9271,0 1.65735,-0.50165 1.65735,-1.36525 0,-0.98425 -0.86995,-1.26365 -1.54305,-1.47955 -0.41275,-0.1397 -0.75565,-0.24765 -0.75565,-0.47625 0,-0.23495 0.1905,-0.36195 0.53975,-0.36195 0.40005,0 0.6096,0.2032 0.73025,0.47625 l 0.8636,-0.2794 c -0.17145,-0.62865 -0.7239,-1.11125 -1.54305,-1.11125 -0.9906,0 -1.55575,0.5715 -1.55575,1.2573 0,0.9271 0.7874,1.17475 1.45415,1.39065 0.46355,0.14605 0.84455,0.2667 0.84455,0.57785 0,0.3048 -0.2667,0.4572 -0.66675,0.4572 -0.4064,0 -0.7493,-0.2921 -0.94615,-0.7112 l -0.8636,0.32385 c 0.2667,0.8128 0.92075,1.30175 1.78435,1.30175 z"
         style="font-style:normal;font-variant:normal;font-weight:900;font-stretch:normal;font-size:6.3499999px;font-family:Overpass;-inkscape-font-specification:'Overpass Heavy';fill:#ffffff;stroke-width:0.26458332"
         id="path70" />
      <path
         d="m 207.23278,62.89505 h 0.9652 V 61.3012 h 1.0033 c 1.1049,0 1.5494,-0.762 1.5494,-1.4224 0,-0.7112 -0.4064,-1.42875 -1.5494,-1.42875 h -1.9685 z m 2.0066,-2.5019 h -1.0414 v -1.0287 h 1.0414 c 0.38735,0 0.508,0.2921 0.508,0.51435 0,0.2413 -0.1397,0.51435 -0.508,0.51435 z"
         style="font-style:normal;font-variant:normal;font-weight:900;font-stretch:normal;font-size:6.3499999px;font-family:Overpass;-inkscape-font-specification:'Overpass Heavy';fill:#ffffff;stroke-width:0.26458332"
         id="path72" />
      <path
         d="m 213.70958,62.89505 h 1.0541 l -1.75895,-4.445 h -0.9271 l -1.7526,4.445 h 1.0541 l 0.3302,-0.8636 h 1.67005 z m -0.65405,-1.7526 h -1.0287 l 0.381,-0.95885 c 0.0445,-0.10795 0.10795,-0.26035 0.13335,-0.37465 0.0318,0.1143 0.0889,0.2667 0.13335,0.37465 z"
         style="font-style:normal;font-variant:normal;font-weight:900;font-stretch:normal;font-size:6.3499999px;font-family:Overpass;-inkscape-font-specification:'Overpass Heavy';fill:#ffffff;stroke-width:0.26458332"
         id="path74" />
      <path
         d="m 215.31911,62.89505 h 0.9652 V 61.3266 h 0.85725 l 0.80645,1.56845 h 1.0795 l -0.83185,-1.7145 c 0.5207,-0.2159 0.80645,-0.80645 0.80645,-1.2954 0,-0.76835 -0.381,-1.4351 -1.51765,-1.4351 h -2.16535 z m 0.9652,-2.48285 v -1.04775 h 1.21285 c 0.38735,0 0.50165,0.26035 0.50165,0.5207 0,0.2794 -0.12065,0.52705 -0.50165,0.52705 z"
         style="font-style:normal;font-variant:normal;font-weight:900;font-stretch:normal;font-size:6.3499999px;font-family:Overpass;-inkscape-font-specification:'Overpass Heavy';fill:#ffffff;stroke-width:0.26458332"
         id="path76" />
      <path
         d="m 222.67955,62.89505 h 1.1303 l -1.5621,-2.8321 1.32715,-1.6129 h -1.16205 l -1.6637,2.10185 v -2.10185 h -0.9652 v 4.445 h 0.9652 v -0.9652 l 0.84455,-1.0541 z"
         style="font-style:normal;font-variant:normal;font-weight:900;font-stretch:normal;font-size:6.3499999px;font-family:Overpass;-inkscape-font-specification:'Overpass Heavy';fill:#ffffff;stroke-width:0.26458332"
         id="path78" />
      <path
         d="m 224.43483,62.89505 h 3.0988 V 61.9616 h -2.1336 v -3.51155 h -0.9652 z"
         style="font-style:normal;font-variant:normal;font-weight:900;font-stretch:normal;font-size:6.3499999px;font-family:Overpass;-inkscape-font-specification:'Overpass Heavy';fill:#ffffff;stroke-width:0.26458332"
         id="path80" />
      <path
         d="m 228.08806,62.89505 h 0.9652 v -4.445 h -0.9652 z"
         style="font-style:normal;font-variant:normal;font-weight:900;font-stretch:normal;font-size:6.3499999px;font-family:Overpass;-inkscape-font-specification:'Overpass Heavy';fill:#ffffff;stroke-width:0.26458332"
         id="path82" />
      <path
         d="m 233.67318,62.89505 v -4.445 h -0.9652 v 2.3241 c 0,0.06985 0.006,0.24765 0.0191,0.33655 -0.0381,-0.09525 -0.1397,-0.2667 -0.18415,-0.3302 l -1.63195,-2.33045 h -0.88265 v 4.445 h 0.9525 V 60.5392 c 0,-0.08255 0,-0.2286 -0.0191,-0.33655 0.0508,0.1016 0.14605,0.2794 0.1905,0.33655 l 1.6764,2.35585 z"
         style="font-style:normal;font-variant:normal;font-weight:900;font-stretch:normal;font-size:6.3499999px;font-family:Overpass;-inkscape-font-specification:'Overpass Heavy';fill:#ffffff;stroke-width:0.26458332"
         id="path84" />
      <path
         d="m 234.61715,62.89505 h 3.32105 V 61.9743 h -2.35585 v -0.9144 h 1.2446 v -0.9144 h -1.2446 v -0.78105 h 2.22885 v -0.9144 h -3.19405 z"
         style="font-style:normal;font-variant:normal;font-weight:900;font-stretch:normal;font-size:6.3499999px;font-family:Overpass;-inkscape-font-specification:'Overpass Heavy';fill:#ffffff;stroke-width:0.26458332"
         id="path86" />
    </g>
  </g>
</svg>
